<svg width="24" height="24" viewBox="0 0 24 24" fill="none" xmlns="http://www.w3.org/2000/svg">
<path d="M21.871 11.4994C21.231 10.3894 17.711 4.81938 11.731 4.99938C6.20104 5.13938 3.00104 9.99938 2.13104 11.4994C2.04328 11.6514 1.99707 11.8238 1.99707 11.9994C1.99707 12.1749 2.04328 12.3474 2.13104 12.4994C2.76104 13.5894 6.13105 18.9994 12.021 18.9994H12.271C17.801 18.8594 21.011 13.9994 21.871 12.4994C21.9588 12.3474 22.005 12.1749 22.005 11.9994C22.005 11.8238 21.9588 11.6514 21.871 11.4994ZM12.221 16.9994C7.91105 17.0994 5.10104 13.4094 4.22104 11.9994C5.22104 10.3894 7.83105 7.09938 11.831 6.99938C16.121 6.88938 18.941 10.5894 19.831 11.9994C18.801 13.6094 16.221 16.8994 12.221 16.9994Z" fill="#666666"/>
<path d="M12.001 8.5C11.3087 8.5 10.6321 8.70527 10.0565 9.08986C9.48091 9.47444 9.03231 10.0211 8.7674 10.6606C8.50249 11.3001 8.43318 12.0039 8.56823 12.6828C8.70328 13.3618 9.03662 13.9854 9.5261 14.4749C10.0156 14.9644 10.6392 15.2977 11.3182 15.4327C11.9971 15.5678 12.7008 15.4985 13.3404 15.2336C13.9799 14.9687 14.5265 14.5201 14.9111 13.9445C15.2957 13.3689 15.501 12.6922 15.501 12C15.501 11.0717 15.1322 10.1815 14.4759 9.52513C13.8195 8.86875 12.9292 8.5 12.001 8.5ZM12.001 13.5C11.7043 13.5 11.4143 13.412 11.1676 13.2472C10.9209 13.0824 10.7287 12.8481 10.6152 12.574C10.5016 12.2999 10.4719 11.9983 10.5298 11.7074C10.5877 11.4164 10.7305 11.1491 10.9403 10.9393C11.1501 10.7296 11.4174 10.5867 11.7083 10.5288C11.9993 10.4709 12.3009 10.5006 12.575 10.6142C12.8491 10.7277 13.0834 10.92 13.2482 11.1666C13.413 11.4133 13.501 11.7033 13.501 12C13.501 12.3978 13.3429 12.7794 13.0616 13.0607C12.7803 13.342 12.3988 13.5 12.001 13.5Z" fill="#666666"/>
</svg>
