<svg width="24" height="24" viewBox="0 0 24 24" fill="none" xmlns="http://www.w3.org/2000/svg">
<path d="M16.2397 21.9999C15.9745 21.9999 15.7202 21.8945 15.5326 21.707C15.3451 21.5195 15.2397 21.2651 15.2397 20.9999V18.3999C15.2708 18.1008 15.2388 17.7986 15.1458 17.5126C15.0528 17.2267 14.9008 16.9635 14.6997 16.7399C14.5752 16.6049 14.4903 16.4382 14.4543 16.2581C14.4183 16.078 14.4326 15.8915 14.4956 15.7189C14.5586 15.5464 14.6679 15.3946 14.8116 15.2801C14.9552 15.1656 15.1275 15.0929 15.3097 15.0699C17.7497 14.7799 19.9997 13.9999 19.9997 9.7699C20.0005 8.97998 19.7674 8.20751 19.3297 7.5499C18.9259 6.94453 18.7785 6.20377 18.9197 5.4899C19.0099 5.02422 19.0099 4.54558 18.9197 4.0799C18.171 4.33308 17.4659 4.70078 16.8297 5.1699C16.7095 5.25532 16.5718 5.31306 16.4265 5.33899C16.2813 5.36493 16.1322 5.35841 15.9897 5.3199C14.1851 4.80996 12.2744 4.80996 10.4697 5.3199C10.3273 5.35841 10.1782 5.36493 10.0329 5.33899C9.88772 5.31306 9.75003 5.25532 9.62975 5.1699C8.98968 4.69534 8.27717 4.32727 7.51975 4.0799C7.42465 4.54509 7.42465 5.02471 7.51975 5.4899C7.65083 6.21276 7.49671 6.95828 7.08975 7.5699C6.65401 8.23213 6.42114 9.00718 6.41975 9.7999C6.41975 13.6899 8.29975 14.7299 11.1197 15.0899C11.3043 15.1128 11.4788 15.1867 11.6236 15.3033C11.7685 15.4199 11.8779 15.5745 11.9397 15.7499C11.9979 15.9201 12.0091 16.1028 11.9721 16.2787C11.9352 16.4547 11.8514 16.6175 11.7297 16.7499C11.5352 16.9578 11.386 17.2038 11.2913 17.4723C11.1966 17.7408 11.1586 18.026 11.1797 18.3099V20.9999C11.1797 21.2651 11.0744 21.5195 10.8869 21.707C10.6993 21.8945 10.445 21.9999 10.1797 21.9999C9.91453 21.9999 9.66017 21.8945 9.47264 21.707C9.2851 21.5195 9.17975 21.2651 9.17975 20.9999V20.4299C8.19711 20.5429 7.20178 20.4112 6.28233 20.0466C5.36288 19.682 4.54784 19.0957 3.90975 18.3399C3.58175 17.9764 3.18823 17.6778 2.74975 17.4599C2.62236 17.4271 2.50269 17.3695 2.39757 17.2904C2.29245 17.2113 2.20393 17.1123 2.13708 16.999C2.07022 16.8857 2.02633 16.7604 2.00791 16.6301C1.9895 16.4999 1.99692 16.3673 2.02975 16.2399C2.06258 16.1125 2.12017 15.9929 2.19925 15.8877C2.27833 15.7826 2.37734 15.6941 2.49063 15.6272C2.60392 15.5604 2.72926 15.5165 2.85951 15.4981C2.98976 15.4797 3.12236 15.4871 3.24975 15.5199C4.019 15.8001 4.70635 16.2675 5.24975 16.8799C6.24975 17.8799 7.24974 18.7599 9.14974 18.3999C9.11634 17.863 9.19466 17.325 9.37975 16.8199C7.31975 16.2999 4.37975 14.8199 4.37975 9.8199C4.37711 8.63553 4.72506 7.47688 5.37975 6.4899C5.50135 6.30771 5.54792 6.0856 5.50975 5.8699C5.30767 4.79048 5.42228 3.67564 5.83975 2.6599C5.89647 2.52447 5.98232 2.40318 6.0912 2.30467C6.20009 2.20616 6.32933 2.13283 6.46975 2.0899C6.80975 1.9899 8.02975 1.7899 10.3397 3.2899C12.2097 2.83991 14.1598 2.83991 16.0297 3.2899C18.3397 1.7899 19.5597 1.9799 19.8897 2.0899C20.0302 2.13283 20.1594 2.20616 20.2683 2.30467C20.3772 2.40318 20.463 2.52447 20.5197 2.6599C20.938 3.67894 21.0526 4.79721 20.8497 5.8799C20.8293 5.97746 20.8285 6.07811 20.8474 6.17598C20.8662 6.27385 20.9045 6.36697 20.9597 6.4499C21.6163 7.43971 21.9644 8.60213 21.9597 9.7899C21.9597 14.8599 19.0397 16.3299 16.9597 16.7899C17.143 17.3265 17.2178 17.8942 17.1797 18.4599V20.9999C17.1802 21.255 17.0831 21.5007 16.9084 21.6866C16.7336 21.8725 16.4944 21.9846 16.2397 21.9999Z" fill="#666666"/>
</svg>
