<svg width="17" height="16" viewBox="0 0 17 16" fill="none" xmlns="http://www.w3.org/2000/svg">
<path d="M3 2C3.26522 2 3.51957 1.89464 3.70711 1.70711C3.89464 1.51957 4 1.26522 4 1C4 0.734784 3.89464 0.48043 3.70711 0.292893C3.51957 0.105357 3.26522 0 3 0H1C0.734784 0 0.48043 0.105357 0.292893 0.292893C0.105357 0.48043 0 0.734784 0 1V15C0 15.2652 0.105357 15.5196 0.292893 15.7071C0.48043 15.8946 0.734784 16 1 16H3C3.26522 16 3.51957 15.8946 3.70711 15.7071C3.89464 15.5196 4 15.2652 4 15C4 14.7348 3.89464 14.4804 3.70711 14.2929C3.51957 14.1054 3.26522 14 3 14H2V2H3Z" fill="#EB4F2C"/>
<path d="M16.82 7.41995L14 3.41995C13.8471 3.20436 13.615 3.05809 13.3545 3.01312C13.0941 2.96815 12.8264 3.02813 12.61 3.17995C12.5018 3.25574 12.4098 3.35219 12.3391 3.46376C12.2684 3.57532 12.2206 3.69977 12.1982 3.82994C12.1759 3.9601 12.1796 4.09339 12.2091 4.22212C12.2386 4.35085 12.2933 4.47247 12.37 4.57995L14.09 6.99995H14H6C5.73478 6.99995 5.48043 7.10531 5.29289 7.29284C5.10536 7.48038 5 7.73473 5 7.99995C5 8.26517 5.10536 8.51952 5.29289 8.70706C5.48043 8.89459 5.73478 8.99995 6 8.99995H14L12.2 11.4C12.1212 11.505 12.0639 11.6246 12.0313 11.7518C11.9987 11.879 11.9915 12.0114 12.0101 12.1414C12.0286 12.2714 12.0726 12.3964 12.1395 12.5094C12.2064 12.6224 12.2949 12.7212 12.4 12.7999C12.5731 12.9298 12.7836 13 13 13C13.1552 13 13.3084 12.9638 13.4472 12.8944C13.5861 12.8249 13.7069 12.7241 13.8 12.6L16.8 8.59995C16.9281 8.43082 16.999 8.22534 17.0026 8.01322C17.0062 7.80109 16.9423 7.59333 16.82 7.41995Z" fill="#EB4F2C"/>
</svg>
