<svg width="21" height="21" viewBox="0 0 21 21" fill="none" xmlns="http://www.w3.org/2000/svg">
<path d="M15.4 20.4999C11.3173 20.4946 7.40331 18.8704 4.5164 15.9835C1.62949 13.0966 0.00529192 9.18258 0 5.09987C0 3.87987 0.484642 2.70985 1.34731 1.84718C2.20998 0.984512 3.38 0.49987 4.6 0.49987C4.85834 0.497902 5.11625 0.521348 5.37 0.56987C5.61531 0.606171 5.85647 0.66646 6.09 0.74987C6.25425 0.8075 6.40061 0.907004 6.51461 1.03854C6.62861 1.17008 6.7063 1.3291 6.74 1.49987L8.11 7.49987C8.14693 7.66273 8.14248 7.83225 8.09706 7.99295C8.05165 8.15366 7.96671 8.30043 7.85 8.41987C7.72 8.55987 7.71 8.56987 6.48 9.20987C7.46499 11.3707 9.1932 13.106 11.35 14.0999C12 12.8599 12.01 12.8499 12.15 12.7199C12.2694 12.6032 12.4162 12.5182 12.5769 12.4728C12.7376 12.4274 12.9071 12.4229 13.07 12.4599L19.07 13.8299C19.2353 13.8682 19.3881 13.948 19.5141 14.0617C19.64 14.1754 19.735 14.3193 19.79 14.4799C19.8744 14.7172 19.938 14.9615 19.98 15.2099C20.0202 15.4612 20.0403 15.7153 20.04 15.9699C20.0216 17.1847 19.5233 18.3428 18.654 19.1915C17.7847 20.0402 16.6149 20.5106 15.4 20.4999Z" fill="white"/>
</svg>
